<?xml version="1.0" encoding="UTF-8" standalone="no"?>
<svg
   xmlns:dc="http://purl.org/dc/elements/1.1/"
   xmlns:cc="http://creativecommons.org/ns#"
   xmlns:rdf="http://www.w3.org/1999/02/22-rdf-syntax-ns#"
   xmlns:svg="http://www.w3.org/2000/svg"
   xmlns="http://www.w3.org/2000/svg"
   viewBox="0 0 990 990"
   height="990"
   width="990"
   xml:space="preserve"
   version="1.1"
   id="svg2"><metadata
     id="metadata8"><rdf:RDF><cc:Work
         rdf:about=""><dc:format>image/svg+xml</dc:format><dc:type
           rdf:resource="http://purl.org/dc/dcmitype/StillImage" /><dc:title></dc:title></cc:Work></rdf:RDF></metadata><defs
     id="defs6" /><g
     transform="matrix(1.25,0,0,-1.25,0,990)"
     id="g10"><path
       id="path12"
       style="fill:#000000;fill-opacity:1;fill-rule:evenodd;stroke:none"
       d="m 361.47,721.26 c -5,0 -9.05,-4.05 -9.05,-9.05 l 0,-36.21 c 0,-5 4.05,-9.05 9.05,-9.05 l 225.69,0 c 5,0 9.05,4.05 9.05,9.05 l 0,36.21 c 0,5 -4.05,9.05 -9.05,9.05 l -225.69,0 z" /><path
       id="path14"
       style="fill:#000000;fill-opacity:1;fill-rule:nonzero;stroke:none"
       d="m 361.48,716.26 -0.68,-0.04 -0.36,-0.08 -0.44,-0.13 -0.32,-0.15 -0.36,-0.2 -0.31,-0.22 -0.29,-0.24 -0.29,-0.3 -0.26,-0.31 -0.19,-0.3 -0.17,-0.34 -0.18,-0.4 -0.11,-0.38 -0.06,-0.35 -0.05,-0.47 0.01,-0.38 0,-35.97 0.04,-0.68 0.09,-0.36 0.13,-0.44 0.15,-0.31 0.19,-0.36 0.22,-0.32 0.26,-0.31 0.27,-0.27 0.31,-0.24 0.31,-0.2 0.35,-0.18 0.4,-0.17 0.38,-0.12 0.35,-0.06 0.47,-0.05 0.38,0.01 225.44,0.01 0.68,0.03 0.36,0.09 0.44,0.13 0.31,0.15 0.36,0.2 0.32,0.22 0.31,0.25 0.26,0.28 0.24,0.3 0.21,0.32 0.18,0.34 0.17,0.4 0.12,0.38 0.05,0.35 0.06,0.47 -0.01,0.38 -0.01,35.97 -0.04,0.68 -0.08,0.36 -0.14,0.44 -0.14,0.31 -0.19,0.34 -0.24,0.36 -0.25,0.29 -0.25,0.24 -0.32,0.26 -0.35,0.23 -0.31,0.16 -0.4,0.17 -0.38,0.12 -0.35,0.05 -0.47,0.06 -0.38,-0.01 -225.44,-0.01 z m 225.6,3.34 0.74,-0.03 0.76,-0.11 0.69,-0.17 0.69,-0.24 0.65,-0.31 0.61,-0.36 0.58,-0.42 0.54,-0.48 0.47,-0.5 0.43,-0.57 0.38,-0.62 0.32,-0.63 0.25,-0.66 0.19,-0.73 0.12,-0.72 0.04,-0.84 0.01,-36.13 -0.03,-0.74 -0.11,-0.76 -0.17,-0.7 -0.24,-0.68 -0.31,-0.66 -0.36,-0.61 -0.42,-0.57 -0.47,-0.53 -0.51,-0.48 -0.57,-0.43 -0.6,-0.38 -0.65,-0.32 -0.66,-0.25 -0.73,-0.19 -0.72,-0.12 -0.84,-0.05 -225.6,0 -0.75,0.03 -0.75,0.11 -0.7,0.16 -0.68,0.25 -0.66,0.31 -0.61,0.36 -0.57,0.41 -0.53,0.47 -0.49,0.52 -0.43,0.57 -0.37,0.6 -0.32,0.65 -0.25,0.66 -0.19,0.73 -0.13,0.72 -0.04,0.84 0,36.13 0.02,0.74 0.12,0.76 0.16,0.69 0.25,0.69 0.31,0.65 0.36,0.62 0.4,0.56 0.48,0.53 0.53,0.49 0.56,0.43 0.6,0.38 0.65,0.32 0.66,0.25 0.72,0.19 0.72,0.12 0.85,0.05 225.6,0 z m -225.6,3.33 -1.01,-0.05 -1.08,-0.16 -1.01,-0.25 -1.01,-0.36 -0.94,-0.44 -0.88,-0.53 -0.84,-0.62 -0.76,-0.68 -0.69,-0.74 -0.63,-0.84 -0.54,-0.88 -0.45,-0.92 -0.37,-0.98 -0.28,-1.04 -0.17,-1.05 -0.06,-1.1 0,-36.29 0.04,-1 0.17,-1.08 0.24,-1.02 0.36,-1 0.45,-0.94 0.52,-0.89 0.61,-0.82 0.69,-0.78 0.76,-0.7 0.82,-0.62 0.89,-0.54 0.91,-0.45 0.99,-0.37 1.04,-0.27 1.04,-0.17 1.1,-0.07 225.77,0 1,0.05 1.08,0.16 1.02,0.24 1,0.37 0.94,0.44 0.88,0.53 0.83,0.6 0.77,0.69 0.7,0.76 0.62,0.82 0.55,0.89 0.45,0.92 0.37,0.98 0.27,1.04 0.17,1.05 0.07,1.1 0,36.29 -0.05,1 -0.16,1.08 -0.25,1.02 -0.36,1 -0.44,0.94 -0.52,0.88 -0.61,0.83 -0.7,0.77 -0.75,0.7 -0.82,0.62 -0.89,0.55 -0.92,0.45 -0.98,0.37 -1.04,0.27 -1.05,0.17 -1.1,0.07 -225.76,0 z m 225.92,3.33 1.46,-0.11 1.33,-0.23 1.39,-0.37 1.29,-0.5 1.17,-0.6 1.19,-0.74 1.05,-0.81 0.97,-0.91 0.91,-1.04 0.79,-1.11 0.66,-1.13 0.58,-1.24 0.47,-1.36 0.3,-1.3 0.2,-1.44 0.05,-1.16 -0.01,-36.45 -0.1,-1.47 -0.23,-1.33 -0.37,-1.39 -0.5,-1.28 -0.6,-1.18 -0.72,-1.15 -0.83,-1.08 -0.93,-0.99 -1.02,-0.9 -1.09,-0.77 -1.16,-0.68 -1.23,-0.57 -1.36,-0.47 -1.3,-0.3 -1.44,-0.2 -1.16,-0.05 -225.93,0 -1.46,0.1 -1.33,0.23 -1.39,0.38 -1.28,0.5 -1.18,0.59 -1.16,0.73 -1.07,0.83 -0.99,0.92 -0.9,1.03 -0.78,1.08 -0.68,1.17 -0.56,1.23 -0.47,1.35 -0.31,1.3 -0.2,1.44 -0.05,1.17 0.01,36.45 0.1,1.46 0.23,1.33 0.38,1.39 0.5,1.29 0.59,1.17 0.72,1.16 0.85,1.1 0.91,0.96 1,0.88 1.11,0.8 1.17,0.68 1.23,0.57 1.35,0.47 1.3,0.3 1.44,0.2 1.17,0.05 225.92,0 z" /><text
       id="text16"
       style="font-variant:normal;font-weight:bold;font-size:27.95999908px;font-family:Calibri;-inkscape-font-specification:'Calibri Bold';writing-mode:lr-tb;fill:#ffffff;fill-opacity:1;fill-rule:nonzero;stroke:none"
       transform="matrix(1,0,0,-1,380.23,684.1)"><tspan
         id="tspan18"
         y="0"
         x="0 13.22508 27.28896 42.303478 57.318001 71.381882 86.3964 98.083679 112.14756 118.66224 134.01228 148.07616 161.8884 176.90292">Sequence Reads</tspan></text>
<path
       id="path20"
       style="fill:#000000;fill-opacity:1;fill-rule:evenodd;stroke:none"
       d="m 357.41,604.56 c -5,0 -9.05,-4.06 -9.05,-9.06 l 0,-36.21 c 0,-4.99 4.05,-9.05 9.05,-9.05 l 225.69,0 c 5,0 9.05,4.06 9.05,9.05 l 0,36.21 c 0,5 -4.05,9.06 -9.05,9.06 l -225.69,0 z" /><path
       id="path22"
       style="fill:#000000;fill-opacity:1;fill-rule:nonzero;stroke:none"
       d="m 357.42,599.55 -0.68,-0.03 -0.36,-0.09 -0.44,-0.13 -0.31,-0.15 -0.36,-0.2 -0.32,-0.22 -0.31,-0.25 -0.27,-0.28 -0.24,-0.3 -0.2,-0.31 -0.18,-0.35 -0.17,-0.4 -0.12,-0.38 -0.06,-0.35 -0.05,-0.47 0.01,-0.38 0.01,-35.97 0.03,-0.68 0.09,-0.36 0.13,-0.44 0.15,-0.31 0.19,-0.34 0.24,-0.36 0.24,-0.29 0.26,-0.24 0.32,-0.26 0.34,-0.23 0.32,-0.16 0.4,-0.17 0.38,-0.12 0.35,-0.05 0.47,-0.06 0.38,0.01 225.44,0.01 0.68,0.04 0.36,0.08 0.44,0.14 0.31,0.14 0.34,0.19 0.36,0.24 0.26,0.23 0.27,0.28 0.28,0.33 0.21,0.33 0.16,0.31 0.17,0.4 0.12,0.38 0.05,0.35 0.06,0.47 -0.01,0.38 -0.01,35.97 -0.04,0.68 -0.08,0.36 -0.13,0.44 -0.15,0.31 -0.2,0.36 -0.22,0.32 -0.24,0.28 -0.3,0.3 -0.31,0.26 -0.3,0.18 -0.34,0.18 -0.4,0.17 -0.38,0.12 -0.35,0.06 -0.47,0.05 -0.38,-0.01 -225.44,-0.01 z m 225.6,3.34 0.74,-0.03 0.76,-0.11 0.7,-0.16 0.68,-0.25 0.66,-0.31 0.61,-0.36 0.56,-0.41 0.53,-0.47 0.49,-0.53 0.43,-0.56 0.38,-0.6 0.32,-0.65 0.25,-0.66 0.19,-0.73 0.12,-0.72 0.05,-0.84 0,-36.13 -0.03,-0.74 -0.11,-0.76 -0.16,-0.69 -0.25,-0.69 -0.31,-0.65 -0.35,-0.61 -0.42,-0.57 -0.49,-0.54 -0.51,-0.48 -0.55,-0.43 -0.62,-0.38 -0.64,-0.32 -0.66,-0.25 -0.73,-0.19 -0.72,-0.12 -0.84,-0.04 -225.6,-0.01 -0.74,0.03 -0.76,0.11 -0.7,0.17 -0.68,0.24 -0.66,0.31 -0.6,0.36 -0.58,0.42 -0.54,0.48 -0.47,0.5 -0.43,0.57 -0.38,0.62 -0.32,0.63 -0.25,0.66 -0.19,0.73 -0.12,0.72 -0.05,0.84 0,36.13 0.03,0.74 0.11,0.76 0.16,0.7 0.25,0.68 0.31,0.66 0.36,0.61 0.41,0.57 0.47,0.53 0.52,0.48 0.57,0.43 0.6,0.38 0.65,0.32 0.66,0.25 0.73,0.19 0.72,0.12 0.84,0.05 225.6,0 z m -225.6,3.33 -1.01,-0.05 -1.08,-0.16 -1.01,-0.24 -1,-0.37 -0.94,-0.44 -0.89,-0.53 -0.82,-0.6 -0.78,-0.69 -0.7,-0.76 -0.62,-0.82 -0.54,-0.89 -0.45,-0.92 -0.37,-0.98 -0.27,-1.04 -0.17,-1.04 -0.07,-1.11 0,-36.29 0.05,-1 0.16,-1.08 0.24,-1.02 0.37,-1 0.44,-0.94 0.52,-0.88 0.61,-0.83 0.7,-0.77 0.75,-0.7 0.81,-0.62 0.9,-0.55 0.92,-0.45 0.98,-0.37 1.04,-0.27 1.04,-0.17 1.11,-0.07 225.76,0 1,0.05 1.08,0.16 1.02,0.25 1,0.36 0.94,0.44 0.88,0.52 0.84,0.63 0.76,0.69 0.69,0.74 0.63,0.82 0.55,0.89 0.45,0.92 0.37,0.98 0.27,1.04 0.17,1.05 0.07,1.1 0,36.29 -0.05,1.01 -0.16,1.08 -0.24,1.01 -0.37,1 -0.44,0.94 -0.53,0.89 -0.61,0.83 -0.69,0.77 -0.74,0.69 -0.83,0.63 -0.89,0.54 -0.92,0.45 -0.98,0.37 -1.04,0.27 -1.05,0.17 -1.1,0.07 -225.76,0 z m 225.92,3.33 1.47,-0.1 1.33,-0.23 1.39,-0.38 1.28,-0.5 1.18,-0.59 1.15,-0.73 1.1,-0.84 0.96,-0.91 0.88,-1 0.8,-1.11 0.68,-1.17 0.57,-1.23 0.47,-1.35 0.3,-1.3 0.2,-1.44 0.05,-1.17 0,-36.45 -0.1,-1.46 -0.23,-1.33 -0.38,-1.39 -0.5,-1.29 -0.59,-1.17 -0.75,-1.19 -0.83,-1.07 -0.89,-0.94 -1.01,-0.9 -1.13,-0.81 -1.14,-0.66 -1.24,-0.58 -1.35,-0.47 -1.3,-0.3 -1.44,-0.2 -1.17,-0.05 -225.92,0.01 -1.47,0.1 -1.33,0.23 -1.39,0.37 -1.28,0.5 -1.18,0.6 -1.18,0.74 -1.05,0.82 -0.97,0.9 -0.92,1.04 -0.79,1.11 -0.66,1.13 -0.57,1.24 -0.47,1.36 -0.3,1.3 -0.2,1.44 -0.05,1.16 0,36.45 0.1,1.47 0.23,1.33 0.38,1.39 0.5,1.28 0.59,1.18 0.73,1.15 0.82,1.08 0.93,0.99 1.03,0.9 1.08,0.78 1.17,0.67 1.23,0.57 1.35,0.47 1.3,0.3 1.44,0.2 1.17,0.05 225.92,0 z" /><text
       id="text24"
       style="font-variant:normal;font-weight:bold;font-size:27.95999908px;font-family:Calibri;-inkscape-font-specification:'Calibri Bold';writing-mode:lr-tb;fill:#ffffff;fill-opacity:1;fill-rule:nonzero;stroke:none"
       transform="matrix(1,0,0,-1,381.67,567.46)"><tspan
         id="tspan26"
         y="0"
         x="0 19.180559 34.19508 48.00732 54.885479 61.763641 71.465759 84.718803 91.037758 105.8286 120.95496 135.71783 145.41995 155.03819 170.08067">Quality Control</tspan></text>
<path
       id="path28"
       style="fill:#eab200;fill-opacity:1;fill-rule:evenodd;stroke:none"
       d="m 329.78,485.66 c -5,0 -9.05,-4.05 -9.05,-9.05 l 0,-36.21 c 0,-5 4.05,-9.05 9.05,-9.05 l 282.53,0 c 5,0 9.05,4.05 9.05,9.05 l 0,36.21 c 0,5 -4.05,9.05 -9.05,9.05 l -282.53,0 z" /><path
       id="path30"
       style="fill:#a6a6a6;fill-opacity:1;fill-rule:nonzero;stroke:none"
       d="m 329.78,480.66 -0.68,-0.03 -0.36,-0.09 -0.44,-0.13 -0.31,-0.15 -0.34,-0.19 -0.36,-0.24 -0.26,-0.23 -0.27,-0.27 -0.28,-0.34 -0.21,-0.32 -0.16,-0.32 -0.17,-0.4 -0.12,-0.38 -0.05,-0.35 -0.06,-0.47 0.01,-0.38 0.01,-35.98 0.04,-0.68 0.08,-0.36 0.13,-0.44 0.15,-0.31 0.19,-0.33 0.24,-0.37 0.23,-0.26 0.28,-0.26 0.33,-0.28 0.33,-0.22 0.31,-0.16 0.4,-0.17 0.38,-0.11 0.35,-0.06 0.47,-0.06 0.38,0.02 282.29,0 0.68,0.04 0.36,0.09 0.44,0.13 0.32,0.14 0.33,0.19 0.36,0.24 0.27,0.24 0.26,0.27 0.28,0.33 0.22,0.33 0.15,0.31 0.18,0.4 0.11,0.38 0.06,0.35 0.05,0.47 -0.01,0.39 0,35.97 -0.04,0.68 -0.09,0.36 -0.13,0.44 -0.15,0.31 -0.19,0.34 -0.24,0.36 -0.23,0.26 -0.27,0.27 -0.34,0.28 -0.32,0.21 -0.32,0.16 -0.4,0.17 -0.38,0.12 -0.35,0.06 -0.47,0.05 -0.38,-0.01 -282.29,-0.01 z m 282.45,3.34 0.74,-0.03 0.76,-0.11 0.7,-0.16 0.68,-0.25 0.66,-0.31 0.6,-0.35 0.58,-0.42 0.53,-0.49 0.48,-0.51 0.43,-0.55 0.38,-0.62 0.32,-0.64 0.25,-0.66 0.19,-0.73 0.13,-0.72 0.04,-0.84 0,-36.13 -0.02,-0.75 -0.12,-0.75 -0.16,-0.7 -0.25,-0.68 -0.31,-0.66 -0.35,-0.61 -0.42,-0.57 -0.49,-0.54 -0.51,-0.48 -0.55,-0.42 -0.62,-0.38 -0.64,-0.32 -0.66,-0.26 -0.73,-0.19 -0.72,-0.12 -0.84,-0.04 -282.45,0 -0.74,0.02 -0.76,0.12 -0.69,0.16 -0.69,0.24 -0.65,0.32 -0.61,0.35 -0.57,0.42 -0.54,0.48 -0.48,0.52 -0.43,0.55 -0.38,0.62 -0.32,0.64 -0.25,0.66 -0.19,0.72 -0.12,0.72 -0.05,0.84 0,36.14 0.03,0.74 0.11,0.76 0.17,0.7 0.24,0.68 0.31,0.66 0.36,0.6 0.42,0.58 0.48,0.53 0.51,0.48 0.56,0.43 0.62,0.38 0.63,0.32 0.66,0.25 0.73,0.19 0.72,0.12 0.84,0.05 282.45,0 z m -282.45,3.33 -1,-0.05 -1.08,-0.16 -1.02,-0.24 -1,-0.37 -0.94,-0.44 -0.88,-0.52 -0.84,-0.62 -0.76,-0.69 -0.69,-0.74 -0.63,-0.82 -0.55,-0.9 -0.45,-0.92 -0.37,-0.98 -0.27,-1.04 -0.17,-1.04 -0.07,-1.11 0,-36.3 0.05,-1 0.16,-1.08 0.25,-1.01 0.36,-1.01 0.44,-0.94 0.52,-0.88 0.63,-0.84 0.69,-0.76 0.73,-0.69 0.83,-0.63 0.89,-0.54 0.92,-0.46 0.98,-0.37 1.04,-0.27 1.05,-0.17 1.1,-0.06 282.61,0 1.01,0.04 1.08,0.16 1.01,0.25 1.01,0.36 0.93,0.45 0.88,0.52 0.85,0.62 0.76,0.69 0.68,0.74 0.63,0.82 0.55,0.89 0.45,0.92 0.37,0.98 0.28,1.05 0.17,1.04 0.06,1.1 0,36.3 -0.04,1.01 -0.17,1.08 -0.24,1.01 -0.36,1 -0.45,0.94 -0.52,0.88 -0.62,0.84 -0.69,0.77 -0.74,0.68 -0.82,0.63 -0.9,0.55 -0.91,0.45 -0.99,0.37 -1.04,0.27 -1.04,0.17 -1.11,0.07 -282.61,0 z m 282.78,3.33 1.46,-0.1 1.33,-0.23 1.39,-0.38 1.28,-0.5 1.18,-0.59 1.18,-0.75 1.07,-0.83 0.94,-0.89 0.9,-1.01 0.82,-1.13 0.66,-1.14 0.57,-1.24 0.47,-1.35 0.31,-1.3 0.19,-1.44 0.06,-1.17 -0.01,-36.46 -0.1,-1.46 -0.23,-1.33 -0.38,-1.39 -0.5,-1.29 -0.59,-1.17 -0.74,-1.19 -0.84,-1.07 -0.89,-0.94 -1.01,-0.89 -1.13,-0.82 -1.14,-0.66 -1.24,-0.58 -1.35,-0.46 -1.3,-0.31 -1.44,-0.2 -1.17,-0.05 -282.77,0.01 -1.46,0.1 -1.33,0.23 -1.39,0.38 -1.29,0.5 -1.17,0.59 -1.19,0.74 -1.07,0.84 -0.94,0.89 -0.9,1.01 -0.81,1.13 -0.66,1.14 -0.58,1.24 -0.47,1.35 -0.3,1.3 -0.2,1.44 -0.05,1.16 0,36.46 0.11,1.47 0.22,1.33 0.38,1.39 0.5,1.28 0.6,1.18 0.74,1.18 0.83,1.07 0.89,0.94 1.01,0.9 1.14,0.82 1.13,0.66 1.24,0.57 1.36,0.47 1.3,0.3 1.44,0.2 1.16,0.05 282.78,0 z" /><text
       id="text32"
       style="font-variant:normal;font-weight:bold;font-size:27.95999908px;font-family:Calibri;-inkscape-font-specification:'Calibri Bold';writing-mode:lr-tb;fill:#ffffff;fill-opacity:1;fill-rule:nonzero;stroke:none"
       transform="matrix(1,0,0,-1,342.89,448.51)"><tspan
         id="tspan34"
         y="0"
         x="0 16.94376 23.82192 30.700081 43.953121 58.96764 81.69912 95.763 110.55384 120.3678 126.68676 136.22112 151.2636 157.58257 175.39308 189.45695 204.3876 219.43008 242.30136">Alignment to Genome</tspan></text>
<path
       id="path36"
       style="fill:#1f497d;fill-opacity:1;fill-rule:evenodd;stroke:none"
       d="m 286.57,362.98 c -8.95,0 -16.21,-7.26 -16.21,-16.21 l 0,-64.84 c 0,-8.96 7.26,-16.21 16.21,-16.21 l 381.9,0 c 8.95,0 16.21,7.25 16.21,16.21 l 0,64.84 c 0,8.95 -7.26,16.21 -16.21,16.21 l -381.9,0 z" /><path
       id="path38"
       style="fill:#1f497d;fill-opacity:1;fill-rule:nonzero;stroke:none"
       d="m 286.57,357.98 -1.41,-0.08 -1.1,-0.19 -1.07,-0.3 -0.99,-0.4 -0.98,-0.49 -0.91,-0.58 -0.85,-0.67 -0.78,-0.74 -0.72,-0.82 -0.62,-0.87 -0.54,-0.94 -0.45,-0.99 -0.36,-1.05 -0.25,-1.07 -0.15,-1.13 -0.03,-1.14 0.01,-64.59 0.07,-1.41 0.2,-1.1 0.3,-1.08 0.4,-1.01 0.49,-0.97 0.58,-0.91 0.66,-0.84 0.74,-0.79 0.81,-0.7 0.89,-0.64 0.93,-0.54 0.99,-0.45 1.05,-0.36 1.06,-0.24 1.13,-0.15 1.15,-0.03 381.65,0 1.4,0.08 1.11,0.19 1.07,0.3 1.01,0.4 0.97,0.49 0.91,0.58 0.83,0.66 0.81,0.76 0.68,0.79 0.66,0.91 0.53,0.92 0.45,0.99 0.36,1.05 0.25,1.07 0.15,1.13 0.03,1.15 -0.01,64.58 -0.08,1.41 -0.19,1.11 -0.3,1.07 -0.4,1.01 -0.49,0.97 -0.58,0.91 -0.66,0.83 -0.76,0.81 -0.79,0.68 -0.9,0.66 -0.93,0.53 -0.99,0.45 -1.04,0.36 -1.07,0.25 -1.14,0.14 -1.14,0.04 -381.65,-0.01 z m 381.81,3.33 1.49,-0.06 1.45,-0.22 1.39,-0.34 1.35,-0.49 1.27,-0.6 1.2,-0.72 1.13,-0.84 1.04,-0.93 0.94,-1.04 0.85,-1.1 0.73,-1.2 0.62,-1.27 0.5,-1.33 0.36,-1.39 0.23,-1.44 0.08,-1.58 0.01,-64.75 -0.07,-1.49 -0.21,-1.45 -0.35,-1.39 -0.49,-1.35 -0.6,-1.27 -0.72,-1.2 -0.84,-1.13 -0.92,-1.03 -1.04,-0.95 -1.11,-0.85 -1.19,-0.73 -1.27,-0.62 -1.33,-0.5 -1.4,-0.36 -1.44,-0.23 -1.57,-0.08 -381.81,0 -1.49,0.06 -1.45,0.22 -1.39,0.34 -1.34,0.49 -1.28,0.6 -1.2,0.72 -1.13,0.84 -1.03,0.93 -0.95,1.03 -0.84,1.11 -0.74,1.2 -0.61,1.27 -0.5,1.33 -0.37,1.39 -0.23,1.44 -0.08,1.58 0,64.75 0.07,1.49 0.21,1.45 0.35,1.39 0.48,1.35 0.61,1.27 0.72,1.2 0.83,1.13 0.93,1.04 1.03,0.94 1.12,0.85 1.19,0.73 1.27,0.62 1.32,0.5 1.4,0.36 1.44,0.23 1.57,0.08 381.81,0 z m -381.81,3.34 -1.74,-0.09 -1.78,-0.26 -1.71,-0.43 -1.65,-0.6 -1.56,-0.75 -1.48,-0.88 -1.39,-1.03 -1.27,-1.15 -1.16,-1.26 -1.03,-1.37 -0.9,-1.47 -0.76,-1.56 -0.61,-1.64 -0.45,-1.71 -0.28,-1.78 -0.1,-1.82 0,-64.92 0.08,-1.74 0.27,-1.79 0.43,-1.71 0.6,-1.65 0.74,-1.57 0.89,-1.48 1.02,-1.37 1.15,-1.28 1.26,-1.16 1.37,-1.04 1.47,-0.9 1.56,-0.75 1.63,-0.62 1.72,-0.44 1.77,-0.28 1.83,-0.1 381.98,0 1.74,0.08 1.78,0.26 1.71,0.43 1.66,0.6 1.56,0.75 1.48,0.88 1.38,1.03 1.27,1.14 1.16,1.28 1.04,1.36 0.9,1.47 0.76,1.56 0.61,1.64 0.45,1.71 0.28,1.78 0.1,1.82 0,64.92 -0.09,1.74 -0.26,1.79 -0.43,1.71 -0.6,1.65 -0.75,1.57 -0.88,1.48 -1.03,1.38 -1.14,1.27 -1.27,1.16 -1.36,1.03 -1.48,0.91 -1.56,0.76 -1.64,0.61 -1.71,0.44 -1.77,0.28 -1.83,0.1 -381.98,0.01 z m 382.14,3.32 2.17,-0.13 2.1,-0.35 2.03,-0.54 1.94,-0.74 1.84,-0.91 1.75,-1.09 1.59,-1.22 1.52,-1.41 1.32,-1.5 1.22,-1.65 1.04,-1.76 0.87,-1.87 0.7,-1.97 0.49,-2.04 0.3,-2.12 0.09,-1.91 -0.01,-65.08 -0.13,-2.17 -0.35,-2.09 -0.54,-2.04 -0.74,-1.94 -0.91,-1.84 -1.09,-1.75 -1.22,-1.59 -1.41,-1.51 -1.49,-1.33 -1.66,-1.22 -1.76,-1.04 -1.87,-0.87 -1.97,-0.69 -2.04,-0.5 -2.12,-0.3 -1.9,-0.09 -382.15,0.01 -2.16,0.13 -2.1,0.35 -2.04,0.55 -1.92,0.73 -1.85,0.91 -1.73,1.09 -1.62,1.24 -1.49,1.38 -1.35,1.52 -1.2,1.65 -1.04,1.76 -0.87,1.86 -0.7,1.97 -0.5,2.04 -0.3,2.12 -0.08,1.91 0,65.08 0.14,2.17 0.34,2.09 0.55,2.04 0.74,1.94 0.91,1.84 1.08,1.73 1.23,1.62 1.39,1.49 1.52,1.35 1.65,1.21 1.76,1.04 1.86,0.87 1.97,0.7 2.03,0.49 2.13,0.3 1.9,0.09 382.14,-0.01 z" /><text
       id="text40"
       style="font-variant:normal;font-weight:bold;font-size:27.95999908px;font-family:Calibri;-inkscape-font-specification:'Calibri Bold';writing-mode:lr-tb;fill:#ffffff;fill-opacity:1;fill-rule:nonzero;stroke:none"
       transform="matrix(1,0,0,-1,366.77,323.69)"><tspan
         id="tspan42"
         y="0"
         x="0 16.94376 23.82192 30.700081 43.953121 58.96764 81.69912 95.763 110.55384 120.3678 126.68676 141.4776 148.35576 162.41965 176.23187 191.2464 206.26093">Alignment Cleanup</tspan></text>
<text
       id="text44"
       style="font-variant:normal;font-weight:bold;font-size:27.95999908px;font-family:Calibri;-inkscape-font-specification:'Calibri Bold';writing-mode:lr-tb;fill:#eab200;fill-opacity:1;fill-rule:nonzero;stroke:none"
       transform="matrix(1,0,0,-1,303.17,289.49)"><tspan
         id="tspan46"
         y="0"
         x="0 15.48984 32.433601 56.87064 63.245522 78.595558 92.659439 106.47168 121.4862 134.6274 140.94637 149.39027 164.43275 174.35857 180.67752 195.72 209.53224 219.45804 226.3362 240.20436 254.96724 264.66937 270.98831 285.77917 299.5914 306.46957 313.34772 320.22589 335.24039">BAM Ready for Variant Calling</tspan></text>
<path
       id="path48"
       style="fill:#eab200;fill-opacity:1;fill-rule:evenodd;stroke:none"
       d="m 356.62,199.88 c -4.99,0 -9.05,-4.06 -9.05,-9.06 l 0,-36.21 c 0,-5 4.06,-9.05 9.05,-9.05 l 225.69,0 c 5,0 9.05,4.05 9.05,9.05 l 0,36.21 c 0,5 -4.05,9.06 -9.05,9.06 l -225.69,0 z" /><path
       id="path50"
       style="fill:#a6a6a6;fill-opacity:1;fill-rule:nonzero;stroke:none"
       d="m 356.62,194.88 -0.68,-0.04 -0.36,-0.09 -0.44,-0.13 -0.31,-0.15 -0.33,-0.19 -0.37,-0.24 -0.26,-0.23 -0.26,-0.27 -0.29,-0.34 -0.21,-0.32 -0.16,-0.32 -0.17,-0.4 -0.11,-0.38 -0.06,-0.35 -0.06,-0.47 0.01,-0.38 0.01,-35.97 0.04,-0.68 0.09,-0.36 0.13,-0.44 0.14,-0.32 0.19,-0.33 0.24,-0.36 0.24,-0.27 0.27,-0.26 0.33,-0.28 0.33,-0.22 0.31,-0.15 0.4,-0.18 0.38,-0.11 0.35,-0.06 0.47,-0.05 0.39,0.01 225.44,0 0.68,0.04 0.36,0.09 0.44,0.13 0.32,0.15 0.33,0.19 0.36,0.24 0.27,0.23 0.26,0.27 0.28,0.34 0.22,0.32 0.15,0.32 0.18,0.4 0.11,0.38 0.06,0.35 0.05,0.47 -0.01,0.38 0,35.97 -0.04,0.68 -0.09,0.36 -0.13,0.44 -0.15,0.32 -0.19,0.33 -0.24,0.36 -0.23,0.27 -0.27,0.26 -0.34,0.28 -0.32,0.22 -0.32,0.15 -0.4,0.18 -0.38,0.11 -0.35,0.06 -0.47,0.05 -0.38,-0.01 -225.45,0 z m 225.61,3.33 0.74,-0.02 0.76,-0.12 0.7,-0.16 0.68,-0.25 0.66,-0.31 0.6,-0.35 0.58,-0.42 0.53,-0.48 0.48,-0.52 0.43,-0.55 0.38,-0.62 0.32,-0.64 0.25,-0.66 0.19,-0.72 0.13,-0.72 0.04,-0.85 0,-36.13 -0.02,-0.74 -0.12,-0.76 -0.16,-0.7 -0.25,-0.68 -0.31,-0.66 -0.35,-0.6 -0.42,-0.58 -0.49,-0.53 -0.51,-0.48 -0.55,-0.43 -0.62,-0.38 -0.64,-0.32 -0.66,-0.25 -0.73,-0.19 -0.72,-0.13 -0.84,-0.04 -225.61,0 -0.74,0.02 -0.75,0.12 -0.7,0.16 -0.68,0.25 -0.66,0.31 -0.61,0.35 -0.57,0.42 -0.54,0.49 -0.48,0.51 -0.42,0.55 -0.38,0.62 -0.32,0.64 -0.26,0.66 -0.19,0.73 -0.12,0.72 -0.04,0.84 0,36.13 0.02,0.75 0.12,0.75 0.16,0.7 0.24,0.68 0.32,0.66 0.35,0.6 0.42,0.58 0.48,0.53 0.52,0.48 0.55,0.43 0.62,0.38 0.64,0.32 0.66,0.25 0.72,0.19 0.72,0.13 0.84,0.04 225.61,0 z m -225.61,3.33 -1,-0.04 -1.08,-0.17 -1.01,-0.24 -1.01,-0.36 -0.94,-0.45 -0.88,-0.52 -0.84,-0.62 -0.76,-0.69 -0.69,-0.74 -0.63,-0.82 -0.54,-0.9 -0.46,-0.91 -0.37,-0.99 -0.27,-1.04 -0.17,-1.04 -0.06,-1.1 -0.01,-36.3 0.05,-1.01 0.16,-1.08 0.25,-1.01 0.36,-1.01 0.45,-0.93 0.52,-0.88 0.62,-0.85 0.69,-0.76 0.74,-0.68 0.82,-0.63 0.89,-0.55 0.92,-0.45 0.98,-0.37 1.05,-0.28 1.04,-0.17 1.1,-0.06 225.77,0 1.01,0.04 1.08,0.17 1.01,0.24 1.01,0.36 0.93,0.45 0.88,0.52 0.85,0.62 0.76,0.69 0.68,0.74 0.63,0.82 0.55,0.9 0.45,0.91 0.37,0.99 0.28,1.04 0.17,1.04 0.06,1.11 0,36.29 -0.04,1.01 -0.17,1.08 -0.24,1.01 -0.36,1.01 -0.45,0.93 -0.52,0.88 -0.62,0.85 -0.69,0.76 -0.74,0.68 -0.82,0.63 -0.9,0.55 -0.91,0.45 -0.99,0.37 -1.04,0.28 -1.04,0.17 -1.11,0.06 -225.77,0 z m 225.94,3.33 1.46,-0.1 1.33,-0.23 1.39,-0.38 1.28,-0.5 1.18,-0.59 1.18,-0.74 1.07,-0.84 0.94,-0.89 0.9,-1.01 0.82,-1.13 0.66,-1.14 0.57,-1.24 0.47,-1.35 0.31,-1.3 0.19,-1.44 0.06,-1.17 -0.01,-36.46 -0.1,-1.46 -0.23,-1.33 -0.38,-1.39 -0.5,-1.28 -0.59,-1.18 -0.74,-1.18 -0.84,-1.07 -0.89,-0.94 -1.01,-0.9 -1.13,-0.82 -1.14,-0.66 -1.24,-0.57 -1.35,-0.47 -1.3,-0.31 -1.44,-0.19 -1.17,-0.06 -225.93,0.01 -1.46,0.1 -1.33,0.23 -1.39,0.38 -1.29,0.5 -1.17,0.59 -1.19,0.74 -1.07,0.84 -0.94,0.89 -0.89,1.01 -0.82,1.13 -0.66,1.14 -0.58,1.24 -0.47,1.35 -0.3,1.3 -0.2,1.44 -0.05,1.17 0.01,36.46 0.1,1.46 0.23,1.33 0.38,1.39 0.5,1.28 0.59,1.18 0.74,1.18 0.84,1.07 0.89,0.95 1.01,0.89 1.13,0.82 1.14,0.66 1.24,0.57 1.35,0.47 1.3,0.31 1.44,0.2 1.16,0.05 225.94,-0.01 z" /><text
       id="text52"
       style="font-variant:normal;font-weight:bold;font-size:36px;font-family:Calibri;-inkscape-font-specification:'Calibri Bold';writing-mode:lr-tb;fill:#ffffff;fill-opacity:1;fill-rule:nonzero;stroke:none"
       transform="matrix(1,0,0,-1,357.65,154.82)"><tspan
         id="tspan54"
         y="0"
         x="0 19.224001 37.007999 49.787998 58.644001 76.428001 95.435997 107.928 116.064 135.108 152.892 161.748 170.604 179.532 198.864">Variant Calling</tspan></text>
<path
       id="path56"
       style="fill:#d9d9d9;fill-opacity:1;fill-rule:evenodd;stroke:none"
       d="m 454.74,633.47 11.05,0 0,27.16 17.05,0 0,-27.16 11.05,0 -19.58,-20.84 -19.57,20.84 z" /><path
       id="path58"
       style="fill:#d9d9d9;fill-opacity:1;fill-rule:evenodd;stroke:none"
       d="m 456.16,514.58 11.05,0 0,27.16 17.05,0 0,-27.16 11.05,0 -19.57,-20.84 -19.58,20.84 z" /><path
       id="path60"
       style="fill:#d9d9d9;fill-opacity:1;fill-rule:evenodd;stroke:none"
       d="m 456.31,395.69 11.06,0 0,27.15 17.05,0 0,-27.15 11.05,0 -19.58,-20.85 -19.58,20.85 z" /><path
       id="path62"
       style="fill:#d9d9d9;fill-opacity:1;fill-rule:evenodd;stroke:none"
       d="m 451.42,230.06 11.05,0 0,27.15 17.06,0 0,-27.15 11.05,0 -19.58,-20.85 -19.58,20.85 z" /><text
       id="text64"
       style="font-variant:normal;font-weight:bold;font-size:27.95999908px;font-family:Calibri;-inkscape-font-specification:'Calibri Bold';writing-mode:lr-tb;fill:#ff0000;fill-opacity:1;fill-rule:nonzero;stroke:none"
       transform="matrix(1,0,0,-1,613.06,625.66)"><tspan
         id="tspan66"
         y="0"
         x="0 11.26788 28.211639 41.15712 54.242401">FASTQ</tspan></text>
<text
       id="text68"
       style="font-variant:normal;font-weight:bold;font-size:27.95999908px;font-family:Calibri;-inkscape-font-specification:'Calibri Bold';writing-mode:lr-tb;fill:#ff0000;fill-opacity:1;fill-rule:nonzero;stroke:none"
       transform="matrix(1,0,0,-1,622.54,391.27)"><tspan
         id="tspan70"
         y="0"
         x="0 12.83364 29.777399 54.214439 66.237244 81.727081 98.726761">SAM/BAM</tspan></text>
<text
       id="text72"
       style="font-variant:normal;font-weight:bold;font-size:27.95999908px;font-family:Calibri;-inkscape-font-specification:'Calibri Bold';writing-mode:lr-tb;fill:#ff0000;fill-opacity:1;fill-rule:nonzero;stroke:none"
       transform="matrix(1,0,0,-1,622.78,511.15)"><tspan
         id="tspan74"
         y="0"
         x="0 11.26788 28.211639 41.15712 54.242401">FASTQ</tspan></text>
<text
       id="text76"
       style="font-variant:normal;font-weight:bold;font-size:27.95999908px;font-family:Calibri;-inkscape-font-specification:'Calibri Bold';writing-mode:lr-tb;fill:#ff0000;fill-opacity:1;fill-rule:nonzero;stroke:none"
       transform="matrix(1,0,0,-1,621.82,215.09)"><tspan
         id="tspan78"
         y="0"
         x="0 15.48984 32.433601">BAM</tspan></text>
<text
       id="text80"
       style="font-variant:normal;font-weight:bold;font-size:27.95999908px;font-family:Calibri;-inkscape-font-specification:'Calibri Bold';writing-mode:lr-tb;fill:#ff0000;fill-opacity:1;fill-rule:nonzero;stroke:none"
       transform="matrix(1,0,0,-1,628.3,111.26)"><tspan
         id="tspan82"
         y="0"
         x="0 16.077 30.86784">VCF</tspan></text>
<path
       id="path84"
       style="fill:#00b0f0;fill-opacity:1;fill-rule:evenodd;stroke:none"
       d="m 42.948,533.05 188.21,0 0,94.737 -188.21,0 0,-94.737 z" /><text
       id="text86"
       style="font-variant:normal;font-weight:normal;font-size:27.95999908px;font-family:Calibri;-inkscape-font-specification:Calibri;writing-mode:lr-tb;fill:#000000;fill-opacity:1;fill-rule:nonzero;stroke:none"
       transform="matrix(1,0,0,-1,97.224,597.82)"><tspan
         id="tspan88"
         y="0"
         x="0 12.10668 25.499519 36.096359 45.462959 64.280037">FastQC</tspan></text>
<text
       id="text90"
       style="font-variant:normal;font-weight:normal;font-size:27.95999908px;font-family:Calibri;-inkscape-font-specification:Calibri;writing-mode:lr-tb;fill:#000000;fill-opacity:1;fill-rule:nonzero;stroke:none"
       transform="matrix(1,0,0,-1,61.68,551.14)"><tspan
         id="tspan92"
         y="0"
         x="0 11.99484 21.75288 28.07184 50.41188 72.751923">Trimmomatic</tspan></text>
<path
       id="path94"
       style="fill:#00b0f0;fill-opacity:1;fill-rule:evenodd;stroke:none"
       d="m 40.579,439.42 188.21,0 0,45.473 -188.21,0 0,-45.473 z" /><text
       id="text96"
       style="font-variant:normal;font-weight:normal;font-size:27.95999908px;font-family:Calibri;-inkscape-font-specification:Calibri;writing-mode:lr-tb;fill:#000000;fill-opacity:1;fill-rule:nonzero;stroke:none"
       transform="matrix(1,0,0,-1,107.3,454.87)"><tspan
         id="tspan98"
         y="0"
         x="0 14.87472 38.417042">BWA</tspan></text>
<path
       id="path100"
       style="fill:#00b0f0;fill-opacity:1;fill-rule:evenodd;stroke:none"
       d="m 43.105,296.69 188.21,0 0,44.211 -188.21,0 0,-44.211 z" /><text
       id="text102"
       style="font-variant:normal;font-weight:normal;font-size:27.95999908px;font-family:Calibri;-inkscape-font-specification:Calibri;writing-mode:lr-tb;fill:#000000;fill-opacity:1;fill-rule:nonzero;stroke:none"
       transform="matrix(1,0,0,-1,85.944,310.85)"><tspan
         id="tspan104"
         y="0"
         x="0 10.93236 24.325199 46.469521 55.58448 70.319397 85.054321 91.485123">samtools</tspan></text>
<path
       id="path106"
       style="fill:#00b0f0;fill-opacity:1;fill-rule:evenodd;stroke:none"
       d="m 43.264,119.69 188.21,0 0,94.737 -188.21,0 0,-94.737 z" /><text
       id="text108"
       style="font-variant:normal;font-weight:normal;font-size:27.95999908px;font-family:Calibri;-inkscape-font-specification:Calibri;writing-mode:lr-tb;fill:#000000;fill-opacity:1;fill-rule:nonzero;stroke:none"
       transform="matrix(1,0,0,-1,92.064,184.34)"><tspan
         id="tspan110"
         y="0"
         x="0 14.679">bcftools</tspan></text>
<text
       id="text112"
       style="font-variant:normal;font-weight:normal;font-size:27.95999908px;font-family:Calibri;-inkscape-font-specification:Calibri;writing-mode:lr-tb;fill:#000000;fill-opacity:1;fill-rule:nonzero;stroke:none"
       transform="matrix(1,0,0,-1,82.944,137.66)"><tspan
         id="tspan114"
         y="0"
         x="0 12.24648 24.073561 32.60136">vcfutils.pl</tspan></text>
<path
       id="path116"
       style="fill:#d9d9d9;fill-opacity:1;fill-rule:evenodd;stroke:none"
       d="m 311.68,592.42 0,-7.58 -76.73,0 0,-15.16 76.73,0 0,-7.57 25.58,15.15 -25.58,15.16 z" /><path
       id="path118"
       style="fill:#d9d9d9;fill-opacity:1;fill-rule:evenodd;stroke:none"
       d="m 293.53,477.32 0,-7.58 -63.48,0 0,-15.16 63.48,0 0,-7.58 21.15,15.16 -21.15,15.16 z" /><path
       id="path120"
       style="fill:#d9d9d9;fill-opacity:1;fill-rule:evenodd;stroke:none"
       d="m 254.21,333.16 0,-7.27 -22.74,0 0,-14.52 22.74,0 0,-7.27 7.58,14.53 -7.58,14.53 z" /><path
       id="path122"
       style="fill:#d9d9d9;fill-opacity:1;fill-rule:evenodd;stroke:none"
       d="m 314.68,187.74 0,-7.58 -80.52,0 0,-15.16 80.52,0 0,-7.58 26.85,15.16 -26.85,15.16 z" /></g></svg>